<svg width="47" height="46" viewBox="0 0 47 46" fill="none" xmlns="http://www.w3.org/2000/svg">
<path d="M23.3678 8.07141C14.9722 8.07141 8.1416 14.819 8.1416 23.1124C8.1416 31.4058 14.9722 38.1534 23.3678 38.1534C31.7634 38.1534 38.594 31.4058 38.594 23.1124C38.594 14.819 31.7634 8.07141 23.3678 8.07141ZM31.1575 13.6897C31.3286 13.5016 31.5702 13.3904 31.8267 13.3804C32.0478 13.3556 32.3322 13.4621 32.5181 13.6365C34.492 15.4827 35.834 17.8328 36.3952 20.4327C36.4844 20.8476 36.2818 21.2699 35.9008 21.4645C34.9696 21.9401 33.8637 22.1705 32.8043 22.1705C31.4233 22.1705 30.1148 21.7793 29.3564 21.0302C27.7431 19.4375 28.4159 16.6936 31.1575 13.6897ZM15.5782 32.6819C15.4072 32.87 15.1656 32.9821 14.9091 32.9922C14.8979 32.9931 14.8849 32.9931 14.8719 32.9931C14.6284 32.9931 14.3942 32.9012 14.2177 32.736C12.2438 30.8898 10.9018 28.5397 10.3405 25.9389C10.2513 25.524 10.4539 25.1017 10.8349 24.9071C12.9799 23.8137 16.0392 24.0175 17.3793 25.3413C18.9907 26.9342 18.3178 29.6781 15.5782 32.6819ZM17.3792 21.0303C16.6209 21.7794 15.3123 22.1705 13.9314 22.1705C12.8719 22.1705 11.7679 21.9401 10.8349 21.4646C10.4538 21.27 10.2512 20.8477 10.3404 20.4328C10.9018 17.8329 12.2437 15.4828 14.2176 13.6366C14.4034 13.4622 14.6767 13.3539 14.909 13.3805C15.1655 13.3906 15.4071 13.5017 15.5781 13.6898C18.3197 16.6936 18.9925 19.4375 17.3792 21.0303ZM27.4234 35.6481C26.1056 36.063 24.7413 36.2733 23.3678 36.2733C21.9943 36.2733 20.63 36.0631 19.3122 35.6481C18.894 35.5159 18.6208 35.1193 18.6505 34.6869C18.8885 31.304 20.9163 28.7528 23.3678 28.7528C25.8194 28.7528 27.8472 31.304 28.0851 34.6869C28.1148 35.1193 27.8416 35.5159 27.4234 35.6481ZM19.5612 23.1124C19.5612 21.0386 21.2694 19.3521 23.3678 19.3521C25.4663 19.3521 27.1744 21.0385 27.1744 23.1124C27.1744 25.1863 25.4663 26.8727 23.3678 26.8727C21.2694 26.8727 19.5612 25.1862 19.5612 23.1124ZM28.0851 11.6122C27.8472 14.9942 25.8194 17.5455 23.3678 17.5455C20.9163 17.5455 18.8885 14.9942 18.6505 11.6122C18.6208 11.1799 18.8921 10.7833 19.3104 10.652C21.946 9.82019 24.7897 9.82019 27.4253 10.652C27.8435 10.7833 28.1148 11.1799 28.0851 11.6122ZM36.3952 25.7894C35.8339 28.3901 34.492 30.7403 32.5181 32.5864C32.3415 32.7517 32.1073 32.8435 31.8639 32.8435C31.8508 32.8435 31.8378 32.8435 31.8267 32.8426C31.5702 32.8325 31.3286 32.7215 31.1575 32.5333C28.416 29.5295 27.7431 26.7846 29.3564 25.1918C30.6966 23.8672 33.7541 23.666 35.9008 24.7576C36.2818 24.9521 36.4844 25.3744 36.3952 25.7894Z" fill="white"/>
<path d="M23.3681 0.550903C10.7737 0.550903 0.528809 10.6722 0.528809 23.1123C0.528809 35.5525 10.7737 45.6738 23.3681 45.6738C35.9624 45.6738 46.2074 35.5525 46.2074 23.1123C46.2074 10.6722 35.9624 0.550903 23.3681 0.550903ZM23.3681 40.0334C13.9224 40.0334 6.23863 32.4423 6.23863 23.1123C6.23863 13.7824 13.9224 6.19126 23.3681 6.19126C32.8138 6.19126 40.4976 13.7824 40.4976 23.1123C40.4976 32.4423 32.8138 40.0334 23.3681 40.0334Z" fill="white"/>
</svg>
