<svg width="43" height="42" viewBox="0 0 43 42" fill="none" xmlns="http://www.w3.org/2000/svg">
<path d="M33.511 7.60864C32.1463 7.60864 30.9757 6.77533 30.4912 5.59697H27.646V3.18295H30.4912C30.9757 2.00459 32.1463 1.17128 33.511 1.17128C35.3076 1.17128 36.7693 2.61518 36.7693 4.38996C36.7693 6.16474 35.3076 7.60864 33.511 7.60864Z" fill="#1E1B1B"/>
<path d="M39.213 14.4484C38.6775 14.4484 38.1722 14.3193 37.7259 14.0922L34.7005 16.5827C34.4809 16.7635 34.2041 16.8624 33.9183 16.8624H27.646V14.4484H33.4759L36.1285 12.2647C36.0165 11.9397 35.9547 11.5918 35.9547 11.2297C35.9547 9.45495 37.4164 8.01105 39.213 8.01105C41.0097 8.01105 42.4714 9.45495 42.4714 11.2297C42.4714 13.0045 41.0097 14.4484 39.213 14.4484Z" fill="#1E1B1B"/>
<path d="M39.213 24.5068C37.8484 24.5068 36.6777 23.6735 36.1933 22.4952H27.646V20.0811H36.1933C36.6777 18.9028 37.8484 18.0695 39.213 18.0695C41.0097 18.0695 42.4714 19.5134 42.4714 21.2882C42.4714 23.0629 41.0097 24.5068 39.213 24.5068Z" fill="#1E1B1B"/>
<path d="M34.7005 25.9936L37.7259 28.4841C38.1722 28.2569 38.6775 28.1278 39.213 28.1278C41.0097 28.1278 42.4714 29.5717 42.4714 31.3465C42.4714 33.1213 41.0097 34.5652 39.213 34.5652C37.4164 34.5652 35.9547 33.1213 35.9547 31.3465C35.9547 30.9844 36.0165 30.6365 36.1285 30.3115L33.4759 28.1278H27.646V25.7138H33.9183C34.2041 25.7138 34.4809 25.8128 34.7005 25.9936Z" fill="#1E1B1B"/>
<path d="M33.511 34.9675C35.3076 34.9675 36.7693 36.4114 36.7693 38.1862C36.7693 39.961 35.3076 41.4049 33.511 41.4049C32.1463 41.4049 30.9757 40.5716 30.4912 39.3932H27.646V36.9792H30.4912C30.9757 35.8009 32.1463 34.9675 33.511 34.9675Z" fill="#1E1B1B"/>
<path d="M12.9834 21.2881C12.9834 16.6293 16.8203 12.8391 21.5365 12.8391C22.8476 12.8391 24.0904 13.1324 25.2021 13.6554V28.9208C24.0904 29.4439 22.8476 29.7372 21.5365 29.7372C16.8203 29.7372 12.9834 25.9469 12.9834 21.2881Z" fill="#1E1B1B"/>
<path d="M23.9802 41.8073H19.0927C18.4179 41.8073 17.8708 41.2668 17.8708 40.6002V39.0291C15.578 38.5677 13.3839 37.6698 11.4295 36.3931L10.3045 37.5043C9.82734 37.9756 9.05374 37.9756 8.57656 37.5043L5.12062 34.0904C4.64344 33.6191 4.64344 32.8548 5.12062 32.3834L6.24547 31.2722C4.95306 29.3415 4.04407 27.1741 3.57699 24.9092H1.98652C1.31172 24.9092 0.764648 24.3687 0.764648 23.7022V18.8741C0.764648 18.2075 1.31172 17.6671 1.98652 17.6671H3.57699C4.04407 15.4022 4.95306 13.2348 6.24547 11.304L5.12054 10.1928C4.89139 9.96642 4.76269 9.65944 4.76269 9.33934C4.76269 9.01924 4.89139 8.71234 5.12054 8.48599L8.57656 5.07201C9.05374 4.60063 9.82734 4.60063 10.3045 5.07201L11.4295 6.18318C13.3839 4.90649 15.578 4.00864 17.8708 3.54716V1.97604C17.8708 1.30945 18.4179 0.769032 19.0927 0.769032H23.9802C24.655 0.769032 25.2021 1.30945 25.2021 1.97604V11.0464C24.055 10.6446 22.8213 10.4251 21.5365 10.4251C15.4728 10.4251 10.5396 15.2983 10.5396 21.2881C10.5396 27.278 15.4728 32.1512 21.5365 32.1512C22.8213 32.1512 24.055 31.9317 25.2021 31.5298V40.6002C25.2021 41.2668 24.655 41.8073 23.9802 41.8073Z" fill="#1E1B1B"/>
</svg>
