<svg width="45" height="39" viewBox="0 0 45 39" fill="none" xmlns="http://www.w3.org/2000/svg">
<path d="M39.0027 2.47039C39.0027 1.47724 38.1877 0.672119 37.1823 0.672119H29.9C28.8946 0.672119 28.0796 1.47724 28.0796 2.47039V6.06725H39.0027V2.47039Z" fill="#1E1B1B"/>
<path d="M17.1565 2.47039C17.1565 1.47724 16.3415 0.672119 15.3361 0.672119H8.05381C7.04843 0.672119 6.2334 1.47724 6.2334 2.47039V6.06725H17.1565V2.47039Z" fill="#1E1B1B"/>
<path d="M0.771973 7.8656V34.8412C0.771973 35.8344 1.58701 36.6398 2.59238 36.6398H6.23354V38.4381H9.8747V36.6398H35.3618V38.4381H39.003V36.6398H42.6441C43.6495 36.6398 44.4645 35.8344 44.4645 34.8412V7.8656H0.771973ZM15.3363 33.043L18.9771 22.2527H13.5155L26.2594 11.4625L22.6182 22.2527H28.0798L15.3363 33.043Z" fill="#1E1B1B"/>
</svg>
