<svg width="54" height="39" viewBox="0 0 54 39" fill="none" xmlns="http://www.w3.org/2000/svg">
<path d="M53.5431 12.5486C53.2801 12.2317 52.8878 12.0468 52.4761 12.0468H47.2433C45.952 8.68227 44.2697 5.38578 42.3575 4.14143C35.7425 -0.157333 18.1966 -0.157333 11.5817 4.14143C9.66807 5.38714 7.99264 8.68771 6.69442 12.0468H1.46164C1.04588 12.0468 0.654901 12.2317 0.394708 12.5486C0.133137 12.8641 0.028509 13.2816 0.113864 13.6828L0.888938 17.3927C1.0211 18.025 1.58554 18.4765 2.23671 18.4765H3.78686C2.2904 20.1819 1.56489 22.3292 1.55525 24.478C1.54562 27.1326 2.56574 29.5315 4.43115 31.2287C4.4518 31.2464 4.47245 31.2586 4.49173 31.2763V36.4672C4.49173 37.5918 5.41686 38.5071 6.55676 38.5071H11.3834C12.5233 38.5071 13.4484 37.5918 13.4484 36.4672V34.381H40.4879V36.4672C40.4879 37.5918 41.4131 38.5071 42.553 38.5071H47.3796C48.5168 38.5071 49.4447 37.5918 49.4447 36.4672V31.3783C51.4243 29.5872 52.3701 27.123 52.3825 24.6629C52.3908 22.4408 51.6322 20.2145 50.0476 18.4738H51.701C52.355 18.4738 52.9194 18.0223 53.0488 17.3886L53.8253 13.68C53.9051 13.2816 53.8046 12.8668 53.5431 12.5486ZM13.8491 7.54808C19.1218 4.11967 34.8146 4.11967 40.0846 7.54808C41.1088 8.21173 42.4263 10.8949 43.6337 14.1805H10.3027C11.5073 10.8962 12.8248 8.21445 13.8491 7.54808ZM7.67325 24.9893C7.67325 22.7726 9.49323 20.9775 11.7358 20.9775C13.9812 20.9775 15.7984 22.7726 15.7984 24.9893C15.7984 27.206 13.9812 29.0025 11.7358 29.0025C9.49323 29.0025 7.67325 27.206 7.67325 24.9893ZM42.2542 29.0025C40.0116 29.0025 38.1916 27.206 38.1916 24.9893C38.1916 22.7726 40.0116 20.9775 42.2542 20.9775C44.4996 20.9775 46.3168 22.7726 46.3168 24.9893C46.3168 27.206 44.4969 29.0025 42.2542 29.0025Z" fill="#1E1B1B"/>
</svg>
