<svg width="44" height="49" viewBox="0 0 44 49" fill="none" xmlns="http://www.w3.org/2000/svg">
<path d="M0.300693 27.1859C0.51437 26.9227 0.833209 26.769 1.16771 26.769H5.41999C6.46936 23.9741 7.83644 21.2357 9.39035 20.202C14.7658 16.6309 29.024 16.6309 34.3995 20.202C35.9545 21.2368 37.316 23.9786 38.371 26.769H42.6233C42.9611 26.769 43.2788 26.9227 43.4903 27.1859C43.7028 27.448 43.7879 27.7948 43.7185 28.1281L43.0887 31.21C42.9813 31.7353 42.5226 32.1104 41.9934 32.1104H40.7337C41.9498 33.527 42.5394 35.3109 42.5472 37.0958C42.555 39.301 41.726 41.2939 40.2102 42.7038C40.1934 42.7184 40.1766 42.7286 40.1609 42.7433V47.0554C40.1609 47.9897 39.4092 48.75 38.4829 48.75H34.5606C33.6343 48.75 32.8825 47.9897 32.8825 47.0554V45.3224H10.9096V47.0554C10.9096 47.9897 10.1578 48.75 9.2315 48.75H5.30924C4.38517 48.75 3.63115 47.9897 3.63115 47.0554V42.828C2.02242 41.3402 1.25385 39.2931 1.24378 37.2495C1.23707 35.4035 1.85349 33.5541 3.14114 32.1081H1.79755C1.26616 32.1081 0.807478 31.733 0.702318 31.2066L0.0713563 28.1258C0.00647015 27.7948 0.088135 27.4503 0.300693 27.1859ZM32.557 23.0319C28.2722 20.1839 15.5199 20.1839 11.2374 23.0319C10.405 23.5832 9.33442 25.8122 8.35329 28.5416H35.4388C34.4599 25.8133 33.3893 23.5855 32.557 23.0319ZM37.5756 37.5206C37.5756 35.6792 36.0966 34.1879 34.2742 34.1879C32.4496 34.1879 30.9728 35.6792 30.9728 37.5206C30.9728 39.362 32.4496 40.8544 34.2742 40.8544C36.0966 40.8544 37.5756 39.362 37.5756 37.5206ZM9.47426 40.8544C11.2967 40.8544 12.7756 39.362 12.7756 37.5206C12.7756 35.6792 11.2967 34.1879 9.47426 34.1879C7.64961 34.1879 6.17289 35.6792 6.17289 37.5206C6.17289 39.362 7.65185 40.8544 9.47426 40.8544Z" fill="#1E1B1B"/>
<mask id="mask0_482_1528" style="mask-type:alpha" maskUnits="userSpaceOnUse" x="6" y="0" width="24" height="28">
<path d="M26.4188 14.89C26.3698 15.4378 26.0645 15.9532 25.5536 16.2421C25.1294 16.4821 24.6923 16.6585 24.2457 16.7779C24.4973 17.6354 24.9596 18.8764 25.7825 20.2055C26.5641 21.4687 26.5734 22.9929 25.8071 24.3881C24.6782 26.4442 22.1853 27.8258 19.603 27.8258C17.8295 27.8258 16.2528 27.0011 15.1637 25.5033C13.6071 23.3619 13.2622 20.2017 14.2416 17.0514C15.1495 14.1312 13.9353 12.5732 13.1319 11.9035C12.477 12.5409 11.5887 12.934 10.6068 12.934C8.59508 12.934 6.9631 11.2864 6.9631 9.25391C6.9631 7.22137 8.59508 5.57428 10.6068 5.57428C12.6196 5.57428 14.2506 7.22184 14.2506 9.25391C14.2506 9.54008 14.2154 9.81705 14.1543 10.0844C15.6714 11.205 17.4227 13.7274 16.1971 17.6711C15.4242 20.1578 15.6613 22.6893 16.8168 24.2782C17.3067 24.9526 18.1884 25.7563 19.6036 25.7563C21.4345 25.7563 23.2488 24.7807 24.0149 23.3846C24.2976 22.8697 24.5316 22.0897 24.0442 21.302C22.9558 19.5426 22.411 17.9009 22.1527 16.8974C21.5478 16.8054 20.9571 16.6083 20.389 16.302C19.8825 16.0288 19.5718 15.5345 19.5033 15.0003C17.0959 12.8025 15.9843 8.8426 15.9204 8.61085C15.7906 8.13544 16.0124 7.64738 16.426 7.42484C16.0935 4.452 17.1831 2.95367 17.8406 2.34336C17.7905 2.05774 17.9036 1.75221 18.1521 1.58847L19.3602 0.791162C19.6757 0.583043 20.0724 0.68808 20.2453 1.02719L20.821 2.15059C20.9944 2.4898 20.8415 2.85152 20.4793 2.95944L19.1135 3.366C18.7672 3.46908 18.3524 3.30199 18.1563 2.99553C17.612 3.57458 16.8282 4.86377 17.0982 7.32306C17.4694 7.39442 17.7875 7.66747 17.8953 8.06008C18.2235 9.24953 19.1713 11.7064 20.5786 13.1796C21.0265 13.0048 21.5415 13.0135 21.9983 13.2591C22.2958 13.4195 22.5867 13.5004 22.8853 13.5067H22.9469C23.2615 13.4999 23.5687 13.4103 23.8834 13.2326C24.3289 12.9802 24.8363 12.958 25.2838 13.1175C26.6596 11.6382 27.5872 9.23335 27.91 8.06027C28.018 7.66868 28.3375 7.39497 28.7074 7.32371C28.9778 4.86442 28.1943 3.57524 27.6492 2.99619C27.453 3.30255 27.0386 3.46973 26.6923 3.36656L25.3265 2.95999C24.9649 2.85207 24.811 2.4898 24.9849 2.15115L25.56 1.02766C25.7334 0.688452 26.1301 0.583508 26.4452 0.791628L27.6545 1.5895C27.9028 1.75324 28.0156 2.05867 27.9658 2.34438C28.6222 2.95478 29.7128 4.45246 29.3801 7.42577C29.7939 7.6484 30.015 8.13637 29.8858 8.61234C29.823 8.83925 28.7449 12.6729 26.4188 14.89ZM10.6068 7.81652C9.8217 7.81652 9.18389 8.45967 9.18389 9.25409C9.18389 10.048 9.8217 10.6916 10.6068 10.6916C11.3931 10.6916 12.0304 10.048 12.0304 9.25409C12.0304 8.45957 11.3935 7.81652 10.6068 7.81652Z" fill="black"/>
</mask>
<g mask="url(#mask0_482_1528)">
<path d="M51.2046 -1.92065H18.4064L15.0437 6.77812L18.4064 19.8495H51.2046V-1.92065Z" fill="#1E1B1B"/>
</g>
</svg>
