<svg width="37" height="47" viewBox="0 0 37 47" fill="none" xmlns="http://www.w3.org/2000/svg">
<path d="M21.4934 8.90637H15.2429C13.2971 11.0973 10.8544 12.785 8.10829 13.8399V21.9277C8.10829 28.7675 12.1168 34.9014 18.3681 37.7092C24.6195 34.9014 28.628 28.7675 28.628 21.9277V13.8408C25.881 12.7859 23.4392 11.0982 21.4934 8.90637ZM25.5598 20.2779L17.2324 28.5032C16.971 28.7614 16.6284 28.8909 16.2867 28.8909C15.9441 28.8909 15.6015 28.7613 15.3401 28.5032L11.1764 24.391C10.6545 23.8746 10.6545 23.0373 11.1764 22.5209C11.6992 22.0053 12.5468 22.0053 13.0696 22.5209L16.2867 25.6989L23.6676 18.4087C24.1895 17.8923 25.037 17.8923 25.5598 18.4087C26.0817 18.9251 26.0817 19.7614 25.5598 20.2779ZM35.3111 7.14375C31.4534 7.14375 27.9401 5.04977 26.1397 1.67965C25.9086 1.24605 25.4528 0.974609 24.9566 0.974609H11.7794C11.2834 0.974609 10.8275 1.24605 10.5955 1.67965C8.79615 5.04977 5.28282 7.14375 1.4171 7.14375C0.678389 7.14375 0.0788574 7.73599 0.0788574 8.46571V21.9277C0.0788574 27.3398 1.79091 32.5077 5.02945 36.8729C8.26799 41.238 12.7404 44.4062 17.9649 46.0358C18.096 46.0772 18.2325 46.0975 18.3681 46.0975C18.5037 46.0975 18.6402 46.0772 18.7714 46.0358C23.996 44.4063 28.4683 41.2381 31.7068 36.8729C34.9454 32.5077 36.6574 27.3398 36.6574 21.9277V8.46571C36.6574 7.73599 36.0498 7.14375 35.3111 7.14375ZM31.3044 21.8677C31.3044 29.9634 26.4288 37.2034 18.8829 40.3117C18.7179 40.3797 18.543 40.4131 18.3681 40.4131C18.1933 40.4131 18.0175 40.3796 17.8534 40.3117C10.3075 37.2034 5.43182 29.9633 5.43182 21.8677V12.8502C5.43182 12.2791 5.80295 11.7724 6.35252 11.5944C9.19227 10.6716 11.6939 8.97511 13.5862 6.68812C13.8404 6.38054 14.2214 6.20252 14.6228 6.20252H22.1134C22.5238 6.20252 23.0074 6.51626 23.15 6.68812C25.0423 8.97511 27.5439 10.6716 30.3836 11.5944C30.7754 11.7213 31.0751 12.0147 31.216 12.3805C31.2179 12.384 31.2187 12.3884 31.2205 12.3919C31.2545 12.4827 31.2785 12.5779 31.292 12.6757C31.2928 12.6854 31.2945 12.696 31.2955 12.7057C31.3009 12.7533 31.3044 12.8009 31.3044 12.8502V21.8677Z" fill="#1E1B1B"/>
</svg>
