<svg width="46" height="47" viewBox="0 0 46 47" fill="none" xmlns="http://www.w3.org/2000/svg">
<path d="M45.7852 21.031C45.7131 20.3968 44.9642 19.9197 44.3166 19.9197C42.2239 19.9197 40.3666 18.7063 39.5877 16.8283C38.7925 14.9052 39.3056 12.6628 40.8648 11.2498C41.3559 10.8063 41.4157 10.0636 41.004 9.54802C39.9326 8.20428 38.7153 6.99031 37.3858 5.93831C36.8657 5.52617 36.1014 5.58355 35.65 6.07705C34.2887 7.56637 31.8434 8.11978 29.9537 7.34098C27.9879 6.52393 26.7471 4.55555 26.869 2.44276C26.9091 1.7787 26.4176 1.20167 25.7478 1.12459C24.0416 0.929449 22.3204 0.92379 20.6093 1.11132C19.9479 1.18352 19.4568 1.74689 19.4787 2.40256C19.5528 4.49466 18.298 6.42831 16.3512 7.21609C14.4842 7.96953 12.0558 7.42021 10.6973 5.94397C10.2483 5.45768 9.49743 5.39797 8.97374 5.80132C7.60516 6.8623 6.36044 8.07705 5.27909 9.40986C4.85773 9.92795 4.91995 10.6789 5.41519 11.124C7.00522 12.5463 7.51785 14.808 6.69231 16.7536C5.90412 18.6084 3.95456 19.8032 1.72291 19.8032C0.998715 19.7802 0.483324 20.2608 0.403319 20.9114C0.202615 22.6058 0.200442 24.3332 0.393639 26.0415C0.465743 26.6784 1.23675 27.1514 1.89141 27.1514C3.88068 27.1015 5.78934 28.3172 6.59117 30.2426C7.38905 32.1658 6.87544 34.4071 5.31366 35.8221C4.82513 36.2657 4.76271 37.0066 5.17518 37.5216C6.23579 38.8569 7.45424 40.0717 8.78766 41.1326C9.31115 41.5491 10.0725 41.4907 10.5262 40.9966C11.8928 39.5038 14.3378 38.9514 16.2198 39.7317C18.1913 40.5466 19.4315 42.5148 19.3104 44.6282C19.2707 45.2923 19.7634 45.871 20.4309 45.9464C21.304 46.0473 22.1817 46.0972 23.0621 46.0972C23.8978 46.0972 24.7336 46.0521 25.5694 45.9602C26.2315 45.888 26.7218 45.3241 26.6995 44.6682C26.6231 42.5771 27.8806 40.6432 29.8251 39.857C31.7045 39.0987 34.122 39.6537 35.4813 41.1278C35.9327 41.6131 36.679 41.672 37.2049 41.2702C38.5711 40.212 39.8134 38.9978 40.8995 37.6615C41.3213 37.1444 41.2614 36.3925 40.7634 35.9466C39.1738 34.5252 38.6584 32.2625 39.4839 30.3189C40.2599 28.4891 42.1369 27.2605 44.1558 27.2605L44.4383 27.2679C45.0938 27.3204 45.6961 26.8218 45.7753 26.1613C45.977 24.4653 45.9792 22.7399 45.7852 21.031ZM23.0896 36.5428C15.8174 36.5428 9.92255 30.7196 9.92255 23.5361C9.92255 16.3526 15.8176 10.5294 23.0896 10.5294C30.3616 10.5294 36.2567 16.3526 36.2567 23.5361C36.2567 25.9743 35.5761 28.2549 34.3942 30.2052L28.6287 24.5096C29.0461 23.5374 29.2666 22.4835 29.2664 21.3958C29.2664 19.2658 28.4266 17.2635 26.9018 15.7576C25.3774 14.2517 23.3504 13.4223 21.1946 13.4223C20.4751 13.4223 19.759 13.5168 19.0662 13.7031C18.7628 13.7849 18.5147 14.032 18.4339 14.3323C18.3513 14.6394 18.4444 14.9542 18.6874 15.1944C18.6874 15.1944 21.5338 18.0278 22.4861 18.9684C22.5859 19.067 22.5857 19.3021 22.5716 19.3868L22.5628 19.4487C22.4668 20.4829 22.2817 21.7244 22.129 22.2015C22.1084 22.2216 22.0891 22.2386 22.0681 22.2593C22.0462 22.2809 22.026 22.3018 22.0049 22.3233C21.5156 22.4784 20.2395 22.6634 19.1759 22.7575L19.1761 22.7518L19.1283 22.7637C19.1198 22.7647 19.104 22.7658 19.083 22.7658C18.9681 22.7658 18.799 22.734 18.6453 22.5824C17.654 21.6032 14.9192 18.921 14.9192 18.921C14.6739 18.6794 14.4222 18.6287 14.2545 18.6287C13.8635 18.6287 13.5135 18.9077 13.4033 19.308C12.6504 22.06 13.4485 25.0203 15.4866 27.0338C17.0114 28.5399 19.0386 29.3692 21.1948 29.3692C22.2959 29.3692 23.3628 29.1516 24.3468 28.7393L30.1749 34.4965C28.1287 35.7899 25.699 36.5428 23.0896 36.5428Z" fill="#1E1B1B"/>
</svg>
