<svg width="33" height="46" viewBox="0 0 33 46" fill="none" xmlns="http://www.w3.org/2000/svg">
<path d="M32.1629 18.4354C32.1629 18.0987 32.0328 17.7746 31.7992 17.5294L21.0933 6.29272C20.8403 6.02736 20.4878 5.87683 20.1188 5.87683H6.73636C6.35416 5.87683 5.99016 6.03829 5.73616 6.32048L0.383205 12.2693C0.165518 12.5113 0.045166 12.8238 0.045166 13.1476V36.4582C0.045166 37.4729 0.432988 38.3999 1.0699 39.1021C0.432988 39.8042 0.045166 40.7313 0.045166 41.746C0.045166 43.9328 1.84617 45.7119 4.05988 45.7119H28.1482C30.3619 45.7119 32.1629 43.9328 32.1629 41.746C32.1629 40.7313 31.7751 39.8042 31.1382 39.1021C31.7752 38.3999 32.1629 37.4729 32.1629 36.4582V18.4354ZM16.104 37.7798C13.8903 37.7798 12.0893 36.0007 12.0893 33.8139C12.0893 33.2694 12.2468 32.2774 13.6082 29.9591C14.2959 28.788 14.9744 27.8155 15.0029 27.7747C15.2528 27.4175 15.6644 27.2041 16.104 27.2041C16.5437 27.2041 16.9552 27.4174 17.2051 27.7747C17.2337 27.8155 17.9122 28.788 18.5999 29.9591C19.9613 32.2775 20.1188 33.2694 20.1188 33.8139C20.1188 36.0007 18.3178 37.7798 16.104 37.7798ZM25.9693 22.1836C25.4517 22.6651 24.793 22.9026 24.1345 22.9026C23.4222 22.9026 22.7125 22.6238 22.1859 22.0712L16.0396 15.6202C15.0255 14.5565 15.0778 12.8833 16.1533 11.8828C17.2315 10.8823 18.9265 10.9327 19.9367 11.9951L26.0829 18.4461C27.0971 19.5099 27.0448 21.183 25.9693 22.1836Z" fill="#1E1B1B"/>
<path d="M14.7656 33.8155C14.7656 34.543 15.366 35.136 16.1039 35.136C16.8414 35.136 17.4415 34.5435 17.4421 33.8151C17.4307 33.4095 16.8744 32.258 16.1041 30.9763C15.3332 32.2593 14.7765 33.4114 14.7656 33.8155Z" fill="#1E1B1B"/>
<path d="M14.7656 0.588989H6.73619C5.99712 0.588989 5.39795 1.18087 5.39795 1.91095V3.23291H16.1039V1.91095C16.1039 1.18087 15.5047 0.588989 14.7656 0.588989Z" fill="#1E1B1B"/>
</svg>
